# xmcd CD database file
# Copyright (C) 1997 Ti Kan
# 
# Track frame offsets:
#     150
#     13597
#     26597
#     39582
#     52507
#     63007
#     76460
#     89340
#     101992
#     113672
#     127752
#     142287
#     153785
#     165460
#     178025
#     193457
#     206325
# 
# Disc length: 2908 seconds
# 
# Revision: 1
# Processed by: cddbd v1.4b41PL1 Copyright (c) Steve Scherf et al.
# Submitted via: DiscPlay 4.0.4
# 
DISCID=d80b5a11
DTITLE=Jimmie Rodgers - Jimmie Rodgers - On The Way Up 1929
DYEAR=1900
DGENRE=
TTITLE0=High Powered Mama
TTITLE1=Tuck Away My Lonesome Blues
TTITLE2=Frankie And Johnny
TTITLE3=Frankie And Johnny
TTITLE4=I'm Sorry We Met
TTITLE5=Train Whistle Blues
TTITLE6=Everybody Does It In Hawaii
TTITLE7=Jimmie's Texas Blues
TTITLE8=Home Call
TTITLE9=Blue Yodel No. 6
TTITLE10=Yodeling Cowboy
TTITLE11=My Rough And Rowdy Ways
TTITLE12=The Land Of My Boyhood Dreams
TTITLE13=The Land Of My Boyhood Dreams
TTITLE14=Whisper Your Mother's Name
TTITLE15=I've Ranged, I've Roamed, I've Travelled
TTITLE16=Hobo Bill's Last Ride
EXTD=
EXTT0=
EXTT1=
EXTT2=
EXTT3=
EXTT4=
EXTT5=
EXTT6=
EXTT7=
EXTT8=
EXTT9=
EXTT10=
EXTT11=
EXTT12=
EXTT13=
EXTT14=
EXTT15=
EXTT16=
PLAYORDER=
